<?xml version="1.0" encoding="utf-8"?><!DOCTYPE svg PUBLIC "-//W3C//DTD SVG 1.1//EN" "http://www.w3.org/Graphics/SVG/1.1/DTD/svg11.dtd"><svg xmlns="http://www.w3.org/2000/svg" width="35" height="35" viewBox="0 0 35 35"><path fill="#231F20" d="M22.26 17.5L34.016 5.744a3.366 3.366 0 0 0-4.76-4.76L17.5 12.742 5.746.986a3.364 3.364 0 0 0-4.76 0 3.364 3.364 0 0 0 0 4.76L12.742 17.5.987 29.256a3.362 3.362 0 0 0 0 4.758 3.356 3.356 0 0 0 4.758 0L17.5 22.26l11.754 11.754a3.358 3.358 0 0 0 4.76 0 3.368 3.368 0 0 0 0-4.758L22.26 17.5z"/></svg>