<?xml version="1.0" encoding="utf-8"?><!DOCTYPE svg PUBLIC "-//W3C//DTD SVG 1.1//EN" "http://www.w3.org/Graphics/SVG/1.1/DTD/svg11.dtd"><svg xmlns="http://www.w3.org/2000/svg" width="35" height="35" viewBox="0 0 35 35"><g fill="#221F1F"><path d="M34.27 14.546h-5.278V9.27a.726.726 0 0 0-.727-.73H26.76a.73.73 0 0 0-.73.73v5.276h-5.276a.73.73 0 0 0-.73.73v1.506c0 .4.326.727.73.727h5.275v5.277c0 .405.328.73.73.73h1.505c.4 0 .727-.325.727-.73V17.51h5.278c.4 0 .73-.327.73-.728v-1.507c0-.4-.33-.73-.73-.73"/><path d="M7.685 5.417c.495-.564 1.14-.86 1.867-.86h.082c2.053.06 4.017 2.345 4.377 5.097.205 1.542-.136 2.99-.91 3.87-.497.563-1.134.864-1.893.864h-.032c-2.013-.06-4.017-2.435-4.375-5.182-.202-1.537.118-2.916.885-3.79M4.808 26.044c0-2.185 2.77-4.1 5.933-4.1h.087c.69.01 1.36.11 1.992.305l.627.43c1.465.998 2.43 1.655 2.698 2.712.065.268.1.53.1.79 0 2.72-2.03 4.1-6.03 4.1-3.033-.002-5.407-1.863-5.407-4.237m11.727-6.87c-1.112-.788-2.118-1.94-2.138-2.293 0-.645.06-.953 1.505-2.08 1.87-1.467 2.902-3.39 2.902-5.422 0-1.848-.564-3.482-1.526-4.635h.746c.154 0 .304-.05.427-.14L20.528 3.1a.728.728 0 0 0-.426-1.32h-9.284c-1.018 0-2.05.18-3.063.53-3.384 1.164-5.75 4.05-5.75 7.006 0 4.197 3.25 7.373 7.592 7.476a3.975 3.975 0 0 0-.125.978c0 .65.164 1.258.5 1.85h-.12c-4.137 0-7.874 2.033-9.295 5.055C.187 25.458 0 26.255 0 27.04c0 .764.195 1.498.58 2.188.89 1.594 2.804 2.832 5.393 3.485 1.335.336 2.77.507 4.26.507 1.34 0 2.618-.17 3.798-.515 3.677-1.067 6.06-3.773 6.06-6.903 0-3-.967-4.8-3.555-6.63"/></g></svg>