<?xml version="1.0" encoding="utf-8"?><!DOCTYPE svg PUBLIC "-//W3C//DTD SVG 1.1//EN" "http://www.w3.org/Graphics/SVG/1.1/DTD/svg11.dtd"><svg xmlns="http://www.w3.org/2000/svg" width="35" height="35" viewBox="0 0 35 35"><path fill-rule="evenodd" clip-rule="evenodd" fill="#231F20" d="M33.654 4.038H1.346C.604 4.038 0 4.642 0 5.385v2.692c0 .742.604 1.346 1.346 1.346h32.308c.742 0 1.346-.604 1.346-1.346V5.385c0-.743-.604-1.347-1.346-1.347m0 10.77H1.346C.604 14.808 0 15.41 0 16.153v2.693c0 .742.604 1.346 1.346 1.346h32.308c.742 0 1.346-.604 1.346-1.346v-2.693c0-.742-.604-1.345-1.346-1.345m0 10.77H1.346C.604 25.577 0 26.18 0 26.922v2.693c0 .742.604 1.346 1.346 1.346h32.308c.742 0 1.346-.604 1.346-1.346v-2.693c0-.742-.604-1.346-1.346-1.346"/></svg>