<?xml version="1.0" encoding="utf-8"?><!DOCTYPE svg PUBLIC "-//W3C//DTD SVG 1.1//EN" "http://www.w3.org/Graphics/SVG/1.1/DTD/svg11.dtd"><svg xmlns="http://www.w3.org/2000/svg" width="35" height="35" viewBox="0 0 35 35"><path fill="#221F1F" d="M18.32 0C8.77 0 3.955 6.846 3.955 12.56c0 3.455 1.308 6.533 4.114 7.678.462.19.873.008 1.007-.504.093-.35.312-1.242.41-1.61.138-.505.084-.684-.288-1.122-.81-.954-1.33-2.193-1.33-3.943 0-5.08 3.806-9.63 9.9-9.63 5.4 0 8.365 3.298 8.365 7.704 0 5.798-2.566 10.692-6.375 10.692-2.1 0-3.675-1.742-3.172-3.875.606-2.543 1.775-5.292 1.775-7.132 0-1.644-.882-3.017-2.712-3.017-2.147 0-3.875 2.226-3.875 5.203 0 1.9.638 3.183.638 3.183L9.83 27.14c-.772 3.253-.118 7.237-.062 7.64.032.238.338.296.476.117.2-.26 2.762-3.423 3.63-6.582.248-.894 1.414-5.525 1.414-5.525.702 1.336 2.74 2.506 4.913 2.506 6.464 0 10.846-5.89 10.846-13.78C31.046 5.555 25.996 0 18.32 0"/></svg>