<?xml version="1.0" encoding="utf-8"?><!DOCTYPE svg PUBLIC "-//W3C//DTD SVG 1.1//EN" "http://www.w3.org/Graphics/SVG/1.1/DTD/svg11.dtd"><svg xmlns="http://www.w3.org/2000/svg" width="35" height="35" viewBox="0 0 35 35"><path fill="#231F20" d="M34.238 30.615l-11.186-11.18c3.202-4.874 2.66-11.478-1.62-15.762-4.902-4.9-12.85-4.9-17.755.007-4.902 4.9-4.902 12.85 0 17.753 4.282 4.283 10.888 4.82 15.76 1.62l11.18 11.186c1.01 1.004 2.636 1.018 3.64.016.995-1 .99-2.63-.02-3.64M18.63 18.627A8.59 8.59 0 0 1 6.48 6.48a8.586 8.586 0 0 1 12.147 0 8.596 8.596 0 0 1 0 12.148"/></svg>