<?xml version="1.0" encoding="utf-8"?><!DOCTYPE svg PUBLIC "-//W3C//DTD SVG 1.1//EN" "http://www.w3.org/Graphics/SVG/1.1/DTD/svg11.dtd"><svg xmlns="http://www.w3.org/2000/svg" width="35" height="35" viewBox="0 0 35 35"><path fill="#221F1F" d="M35 6.646c-1.288.57-2.67.956-4.124 1.133a7.2 7.2 0 0 0 3.156-3.977 14.283 14.283 0 0 1-4.56 1.743 7.17 7.17 0 0 0-5.24-2.265 7.18 7.18 0 0 0-7.18 7.178c0 .565.062 1.11.186 1.637a20.38 20.38 0 0 1-14.8-7.5 7.17 7.17 0 0 0-.973 3.61 7.17 7.17 0 0 0 3.197 5.974 7.16 7.16 0 0 1-3.254-.898v.09c0 3.48 2.474 6.38 5.76 7.04a7.208 7.208 0 0 1-1.89.255c-.465 0-.917-.045-1.35-.13a7.18 7.18 0 0 0 6.703 4.983A14.386 14.386 0 0 1 0 28.495a20.332 20.332 0 0 0 11.008 3.224c13.21 0 20.43-10.94 20.43-20.43 0-.307-.008-.62-.02-.927A14.55 14.55 0 0 0 35 6.646"/></svg>