<?xml version="1.0" encoding="utf-8"?><!DOCTYPE svg PUBLIC "-//W3C//DTD SVG 1.1//EN" "http://www.w3.org/Graphics/SVG/1.1/DTD/svg11.dtd"><svg xmlns="http://www.w3.org/2000/svg" width="35" height="35" viewBox="0 0 35 35"><path d="M28.607 16.69H6.393A6.398 6.398 0 0 0 0 23.084v5.142a6.398 6.398 0 0 0 6.393 6.393h22.214A6.395 6.395 0 0 0 35 28.227v-5.142a6.397 6.397 0 0 0-6.393-6.396zm-17.544 4H8.997v10.26H7.003V20.69H4.938v-1.747h6.125v1.746zm5.832 10.26h-1.77v-.97c-.328.36-.666.63-1.02.816a2.14 2.14 0 0 1-1.03.284c-.41 0-.718-.132-.924-.396-.206-.264-.312-.656-.312-1.188V22.09h1.772v6.798c0 .21.037.357.106.452.08.097.203.142.368.142.127 0 .292-.062.495-.188.196-.123.377-.28.546-.473v-6.73h1.77v8.86zm6.01-.386c-.278.334-.683.5-1.206.5-.347 0-.655-.062-.93-.192a2.3 2.3 0 0 1-.753-.6v.678h-1.793V18.943h1.793v3.865c.24-.27.49-.475.758-.613.27-.14.54-.21.817-.21.56 0 .988.186 1.28.563.298.38.445.932.445 1.656v4.92h.002c0 .626-.14 1.105-.416 1.44zm6.556-3.828H26.043v2.11a.82.82 0 0 0 .398.693c.02.01.037.03.06.04.114.058.238.1.375.1.46 0 .833-.374.833-.834v-.844h1.753v.453c0 .907-.222 1.59-.667 2.053-.44.457-1.105.685-1.986.685-.797 0-1.422-.242-1.875-.73-.453-.482-.686-1.152-.686-2.007v-3.98c0-.763.252-1.395.756-1.88.498-.482 1.14-.722 1.938-.722.812 0 1.435.224 1.87.672s.65 1.093.65 1.93v2.26z"/><path d="M20.758 23.393a.844.844 0 0 0-.375.088 1.25 1.25 0 0 0-.367.27v5.52c.146.143.285.255.42.316.138.062.277.095.43.095.22 0 .374-.06.478-.188.098-.124.152-.325.152-.61V24.31c0-.303-.062-.53-.188-.682-.13-.157-.312-.235-.55-.235zM9.303 13.612h2.242v-5.49L14.16.382h-2.28L10.49 5.67h-.14L8.89.382H6.633l2.67 7.987zM17.2 13.858c.905 0 1.614-.238 2.134-.713.516-.48.77-1.13.77-1.962V6.14c0-.742-.26-1.352-.788-1.826-.525-.47-1.203-.705-2.026-.705-.907 0-1.63.222-2.164.67-.535.445-.804 1.048-.804 1.806v5.057c0 .83.26 1.49.783 1.98.523.488 1.22.735 2.094.735zm-.602-8.366c.156-.132.35-.194.593-.194.27 0 .48.062.645.194.16.136.242.305.242.52v5.316c0 .26-.082.465-.238.618-.162.147-.377.222-.648.222-.26 0-.466-.07-.606-.222-.14-.145-.214-.35-.214-.618V6.012h-.002c0-.215.078-.384.228-.52zM23.115 13.754c.375 0 .76-.105 1.154-.312.398-.206.78-.512 1.148-.91v1.083h1.994v-9.76H25.42v7.406a2.588 2.588 0 0 1-.615.523c-.227.14-.41.207-.555.207-.19 0-.326-.05-.404-.156-.088-.104-.133-.27-.133-.5v-7.48h-1.99v8.157c0 .582.12 1.014.35 1.303.236.293.58.44 1.042.44zM26.875 23.707a.833.833 0 0 0-.833.833v.726h1.666v-.726a.833.833 0 0 0-.833-.833z"/></svg>