<?xml version="1.0" encoding="utf-8"?><!DOCTYPE svg PUBLIC "-//W3C//DTD SVG 1.1//EN" "http://www.w3.org/Graphics/SVG/1.1/DTD/svg11.dtd"><svg xmlns="http://www.w3.org/2000/svg" xmlns:xlink="http://www.w3.org/1999/xlink"><symbol viewBox="0 0 35 35" id="cross"><path fill="#231F20" d="M22.26 17.5L34.016 5.744a3.366 3.366 0 0 0-4.76-4.76L17.5 12.742 5.746.986a3.364 3.364 0 0 0-4.76 0 3.364 3.364 0 0 0 0 4.76L12.742 17.5.987 29.256a3.362 3.362 0 0 0 0 4.758 3.356 3.356 0 0 0 4.758 0L17.5 22.26l11.754 11.754a3.358 3.358 0 0 0 4.76 0 3.368 3.368 0 0 0 0-4.758L22.26 17.5z"/></symbol><symbol viewBox="0 0 35 35" id="facebook"><path fill="#221F1F" d="M25.633 11.332h-5.54V7.7c0-1.364.903-1.683 1.54-1.683h3.912V.02L20.16 0c-5.977 0-7.336 4.473-7.336 7.334v3.997H9.367v6.182h3.457V35h7.268V17.512h4.905l.636-6.18z"/></symbol><symbol viewBox="0 0 35 35" id="googlePlus"><g fill="#221F1F"><path d="M34.27 14.546h-5.278V9.27a.726.726 0 0 0-.727-.73H26.76a.73.73 0 0 0-.73.73v5.276h-5.276a.73.73 0 0 0-.73.73v1.506c0 .4.326.727.73.727h5.275v5.277c0 .405.328.73.73.73h1.505c.4 0 .727-.325.727-.73V17.51h5.278c.4 0 .73-.327.73-.728v-1.507c0-.4-.33-.73-.73-.73"/><path d="M7.685 5.417c.495-.564 1.14-.86 1.867-.86h.082c2.053.06 4.017 2.345 4.377 5.097.205 1.542-.136 2.99-.91 3.87-.497.563-1.134.864-1.893.864h-.032c-2.013-.06-4.017-2.435-4.375-5.182-.202-1.537.118-2.916.885-3.79M4.808 26.044c0-2.185 2.77-4.1 5.933-4.1h.087c.69.01 1.36.11 1.992.305l.627.43c1.465.998 2.43 1.655 2.698 2.712.065.268.1.53.1.79 0 2.72-2.03 4.1-6.03 4.1-3.033-.002-5.407-1.863-5.407-4.237m11.727-6.87c-1.112-.788-2.118-1.94-2.138-2.293 0-.645.06-.953 1.505-2.08 1.87-1.467 2.902-3.39 2.902-5.422 0-1.848-.564-3.482-1.526-4.635h.746c.154 0 .304-.05.427-.14L20.528 3.1a.728.728 0 0 0-.426-1.32h-9.284c-1.018 0-2.05.18-3.063.53-3.384 1.164-5.75 4.05-5.75 7.006 0 4.197 3.25 7.373 7.592 7.476a3.975 3.975 0 0 0-.125.978c0 .65.164 1.258.5 1.85h-.12c-4.137 0-7.874 2.033-9.295 5.055C.187 25.458 0 26.255 0 27.04c0 .764.195 1.498.58 2.188.89 1.594 2.804 2.832 5.393 3.485 1.335.336 2.77.507 4.26.507 1.34 0 2.618-.17 3.798-.515 3.677-1.067 6.06-3.773 6.06-6.903 0-3-.967-4.8-3.555-6.63"/></g></symbol><symbol viewBox="0 0 35 35" id="heart"><path fill="#231F20" d="M17.502 32.646c8.504-6.44 12.816-10.054 15.56-14.833 3.876-6.71 1.52-12.393-3.378-14.625-4.604-2.083-10.055-.13-12.182 4.39-2.135-4.52-7.586-6.474-12.197-4.39C.41 5.42-1.93 11.102 1.935 17.812 4.677 22.592 9 26.205 17.5 32.646"/></symbol><symbol viewBox="0 0 35 35" id="home"><path fill="#231F20" d="M33.634 16.133L17.5 0 1.366 16.133h4.726V35h22.816V16.133z"/></symbol><symbol viewBox="0 0 35 35" id="instagram"><path fill="#221F1F" d="M31.59 28.235a3.356 3.356 0 0 1-3.354 3.35H6.764a3.357 3.357 0 0 1-3.356-3.35V13.908h5.228A9.48 9.48 0 0 0 7.93 17.5c0 5.276 4.293 9.57 9.57 9.57 5.275 0 9.568-4.294 9.568-9.57a9.48 9.48 0 0 0-.705-3.592h5.227v14.327zM12.505 13.908A6.152 6.152 0 0 1 17.5 11.34a6.152 6.152 0 0 1 4.995 2.568A6.118 6.118 0 0 1 23.66 17.5a6.165 6.165 0 0 1-6.16 6.157c-3.396 0-6.16-2.76-6.16-6.157 0-1.342.435-2.58 1.165-3.592m17.67-9.875h.772V9.96l-5.914.02-.016-5.932 5.16-.015zM28.236 0H6.766A6.77 6.77 0 0 0 0 6.765v21.47A6.77 6.77 0 0 0 6.764 35h21.472A6.77 6.77 0 0 0 35 28.235V6.765A6.77 6.77 0 0 0 28.236 0"/></symbol><symbol viewBox="0 0 35 35" id="menu"><path fill-rule="evenodd" clip-rule="evenodd" fill="#231F20" d="M33.654 4.038H1.346C.604 4.038 0 4.642 0 5.385v2.692c0 .742.604 1.346 1.346 1.346h32.308c.742 0 1.346-.604 1.346-1.346V5.385c0-.743-.604-1.347-1.346-1.347m0 10.77H1.346C.604 14.808 0 15.41 0 16.153v2.693c0 .742.604 1.346 1.346 1.346h32.308c.742 0 1.346-.604 1.346-1.346v-2.693c0-.742-.604-1.345-1.346-1.345m0 10.77H1.346C.604 25.577 0 26.18 0 26.922v2.693c0 .742.604 1.346 1.346 1.346h32.308c.742 0 1.346-.604 1.346-1.346v-2.693c0-.742-.604-1.346-1.346-1.346"/></symbol><symbol viewBox="0 0 35 35" id="pinterest"><path fill="#221F1F" d="M18.32 0C8.77 0 3.955 6.846 3.955 12.56c0 3.455 1.308 6.533 4.114 7.678.462.19.873.008 1.007-.504.093-.35.312-1.242.41-1.61.138-.505.084-.684-.288-1.122-.81-.954-1.33-2.193-1.33-3.943 0-5.08 3.806-9.63 9.9-9.63 5.4 0 8.365 3.298 8.365 7.704 0 5.798-2.566 10.692-6.375 10.692-2.1 0-3.675-1.742-3.172-3.875.606-2.543 1.775-5.292 1.775-7.132 0-1.644-.882-3.017-2.712-3.017-2.147 0-3.875 2.226-3.875 5.203 0 1.9.638 3.183.638 3.183L9.83 27.14c-.772 3.253-.118 7.237-.062 7.64.032.238.338.296.476.117.2-.26 2.762-3.423 3.63-6.582.248-.894 1.414-5.525 1.414-5.525.702 1.336 2.74 2.506 4.913 2.506 6.464 0 10.846-5.89 10.846-13.78C31.046 5.555 25.996 0 18.32 0"/></symbol><symbol viewBox="0 0 35 35" id="search"><path fill="#231F20" d="M34.238 30.615l-11.186-11.18c3.202-4.874 2.66-11.478-1.62-15.762-4.902-4.9-12.85-4.9-17.755.007-4.902 4.9-4.902 12.85 0 17.753 4.282 4.283 10.888 4.82 15.76 1.62l11.18 11.186c1.01 1.004 2.636 1.018 3.64.016.995-1 .99-2.63-.02-3.64M18.63 18.627A8.59 8.59 0 0 1 6.48 6.48a8.586 8.586 0 0 1 12.147 0 8.596 8.596 0 0 1 0 12.148"/></symbol><symbol viewBox="0 0 35 35" id="twitter"><path fill="#221F1F" d="M35 6.646c-1.288.57-2.67.956-4.124 1.133a7.2 7.2 0 0 0 3.156-3.977 14.283 14.283 0 0 1-4.56 1.743 7.17 7.17 0 0 0-5.24-2.265 7.18 7.18 0 0 0-7.18 7.178c0 .565.062 1.11.186 1.637a20.38 20.38 0 0 1-14.8-7.5 7.17 7.17 0 0 0-.973 3.61 7.17 7.17 0 0 0 3.197 5.974 7.16 7.16 0 0 1-3.254-.898v.09c0 3.48 2.474 6.38 5.76 7.04a7.208 7.208 0 0 1-1.89.255c-.465 0-.917-.045-1.35-.13a7.18 7.18 0 0 0 6.703 4.983A14.386 14.386 0 0 1 0 28.495a20.332 20.332 0 0 0 11.008 3.224c13.21 0 20.43-10.94 20.43-20.43 0-.307-.008-.62-.02-.927A14.55 14.55 0 0 0 35 6.646"/></symbol><symbol viewBox="0 0 35 35" id="youtube"><path d="M28.607 16.69H6.393A6.398 6.398 0 0 0 0 23.084v5.142a6.398 6.398 0 0 0 6.393 6.393h22.214A6.395 6.395 0 0 0 35 28.227v-5.142a6.397 6.397 0 0 0-6.393-6.396zm-17.544 4H8.997v10.26H7.003V20.69H4.938v-1.747h6.125v1.746zm5.832 10.26h-1.77v-.97c-.328.36-.666.63-1.02.816a2.14 2.14 0 0 1-1.03.284c-.41 0-.718-.132-.924-.396-.206-.264-.312-.656-.312-1.188V22.09h1.772v6.798c0 .21.037.357.106.452.08.097.203.142.368.142.127 0 .292-.062.495-.188.196-.123.377-.28.546-.473v-6.73h1.77v8.86zm6.01-.386c-.278.334-.683.5-1.206.5-.347 0-.655-.062-.93-.192a2.3 2.3 0 0 1-.753-.6v.678h-1.793V18.943h1.793v3.865c.24-.27.49-.475.758-.613.27-.14.54-.21.817-.21.56 0 .988.186 1.28.563.298.38.445.932.445 1.656v4.92h.002c0 .626-.14 1.105-.416 1.44zm6.556-3.828H26.043v2.11a.82.82 0 0 0 .398.693c.02.01.037.03.06.04.114.058.238.1.375.1.46 0 .833-.374.833-.834v-.844h1.753v.453c0 .907-.222 1.59-.667 2.053-.44.457-1.105.685-1.986.685-.797 0-1.422-.242-1.875-.73-.453-.482-.686-1.152-.686-2.007v-3.98c0-.763.252-1.395.756-1.88.498-.482 1.14-.722 1.938-.722.812 0 1.435.224 1.87.672s.65 1.093.65 1.93v2.26z"/><path d="M20.758 23.393a.844.844 0 0 0-.375.088 1.25 1.25 0 0 0-.367.27v5.52c.146.143.285.255.42.316.138.062.277.095.43.095.22 0 .374-.06.478-.188.098-.124.152-.325.152-.61V24.31c0-.303-.062-.53-.188-.682-.13-.157-.312-.235-.55-.235zM9.303 13.612h2.242v-5.49L14.16.382h-2.28L10.49 5.67h-.14L8.89.382H6.633l2.67 7.987zM17.2 13.858c.905 0 1.614-.238 2.134-.713.516-.48.77-1.13.77-1.962V6.14c0-.742-.26-1.352-.788-1.826-.525-.47-1.203-.705-2.026-.705-.907 0-1.63.222-2.164.67-.535.445-.804 1.048-.804 1.806v5.057c0 .83.26 1.49.783 1.98.523.488 1.22.735 2.094.735zm-.602-8.366c.156-.132.35-.194.593-.194.27 0 .48.062.645.194.16.136.242.305.242.52v5.316c0 .26-.082.465-.238.618-.162.147-.377.222-.648.222-.26 0-.466-.07-.606-.222-.14-.145-.214-.35-.214-.618V6.012h-.002c0-.215.078-.384.228-.52zM23.115 13.754c.375 0 .76-.105 1.154-.312.398-.206.78-.512 1.148-.91v1.083h1.994v-9.76H25.42v7.406a2.588 2.588 0 0 1-.615.523c-.227.14-.41.207-.555.207-.19 0-.326-.05-.404-.156-.088-.104-.133-.27-.133-.5v-7.48h-1.99v8.157c0 .582.12 1.014.35 1.303.236.293.58.44 1.042.44zM26.875 23.707a.833.833 0 0 0-.833.833v.726h1.666v-.726a.833.833 0 0 0-.833-.833z"/></symbol></svg>